<?xml version="1.0" encoding="UTF-8"?>
<svg id="Layer_1" xmlns="http://www.w3.org/2000/svg" xmlns:xlink="http://www.w3.org/1999/xlink" version="1.1" viewBox="0 0 347 304">
  <!-- Generator: Adobe Illustrator 29.0.1, SVG Export Plug-In . SVG Version: 2.1.0 Build 192)  -->
  <defs>
    <style>
      .st0 {
        fill: none;
      }

      .st1 {
        fill: #e2e2e2;
      }

      .st2 {
        fill: #f6f6f6;
      }

      .st3 {
        fill: #4cdbc5;
      }

      .st4 {
        fill: #a8efeb;
      }

      .st5 {
        fill: #fb2;
      }

      .st6 {
        clip-path: url(#clippath-1);
      }

      .st7 {
        clip-path: url(#clippath-2);
      }

      .st8 {
        fill: #f9b44c;
      }

      .st9 {
        fill: #ffd05c;
      }

      .st10 {
        fill: #fff;
      }

      .st11 {
        fill: #fe7058;
      }

      .st12 {
        opacity: .31;
      }

      .st13 {
        opacity: .26;
      }

      .st14 {
        fill: #ff9827;
      }

      .st15 {
        fill: #ff503e;
      }

      .st16 {
        fill: #b9f4f2;
      }

      .st17 {
        fill: #feab36;
      }

      .st18 {
        clip-path: url(#clippath);
      }

      .st19 {
        fill: #1ec7b8;
      }
    </style>
    <clipPath id="clippath">
      <path class="st0" d="M90.66,198.75v-79.62c0-5.8,4.71-10.51,10.51-10.51h92.89c2.83,0,5.54,1.14,7.51,3.16l22.68,23.19c1.92,1.96,3,4.6,3,7.35v56.43l-50.81,50.25s-18.47,16.6-37.36-2.62l-48.42-47.64h0Z"/>
    </clipPath>
    <clipPath id="clippath-1">
      <ellipse class="st0" cx="56.07" cy="59.39" rx="48.95" ry="47.56"/>
    </clipPath>
    <clipPath id="clippath-2">
      <path class="st0" d="M31.87,40.17s15.03-3.51,23.28-12.33c0,0,10.28,9.85,22.93,12.4v21.07s.42,18.25-22.79,29.96c0,0-21.46-8.2-23.42-29.34v-21.76Z"/>
    </clipPath>
  </defs>
  <g id="Layer_2">
    <circle class="st4" cx="156" cy="153" r="122"/>
    <g>
      <path class="st19" d="M51.53,254.41c-2.14,0-3.88-1.74-3.88-3.88s1.74-3.88,3.88-3.88,3.88,1.74,3.88,3.88-1.74,3.88-3.88,3.88ZM51.53,247.65c-1.59,0-2.88,1.29-2.88,2.88s1.29,2.88,2.88,2.88,2.88-1.29,2.88-2.88-1.29-2.88-2.88-2.88Z"/>
      <path class="st19" d="M111.95,59.5c-2.58,0-4.67-2.1-4.67-4.67s2.1-4.67,4.67-4.67,4.67,2.1,4.67,4.67-2.1,4.67-4.67,4.67ZM111.95,51.15c-2.03,0-3.67,1.65-3.67,3.67s1.65,3.67,3.67,3.67,3.67-1.65,3.67-3.67-1.65-3.67-3.67-3.67Z"/>
      <path class="st19" d="M263.52,117.3c-1.87,0-3.39-1.52-3.39-3.39s1.52-3.39,3.39-3.39,3.39,1.52,3.39,3.39-1.52,3.39-3.39,3.39ZM263.52,111.52c-1.32,0-2.39,1.07-2.39,2.39s1.07,2.39,2.39,2.39,2.39-1.07,2.39-2.39-1.07-2.39-2.39-2.39Z"/>
    </g>
    <path class="st16" d="M186.56,34.89C121.33,18.01,54.77,57.21,37.89,122.44c-4.09,15.8-4.88,31.67-2.81,46.9,15.82,19.26,37.66,33.87,63.64,40.59,65.23,16.88,131.79-22.32,148.67-87.55,4.09-15.8,4.88-31.67,2.81-46.9-15.82-19.26-37.66-33.87-63.64-40.59h0Z"/>
  </g>
  <g id="Layer_11" data-name="Layer_1">
    <path class="st14" d="M4.43,187.19c-.11,0-.23-.02-.34-.06-.38-.13-.65-.46-.7-.86l-.9-6.84c-.04-.33.07-.65.3-.88.23-.23.55-.34.88-.3l6.84.9c.4.05.73.32.86.7.13.38.03.79-.25,1.08l-5.94,5.94c-.2.2-.47.31-.74.31h0ZM3.54,179.25l-.06.05.9,6.84,6.02-5.91-6.87-.98h.01Z"/>
    <g class="st13">
      <path class="st19" d="M218.62,78.65c-.09,0-.19,0-.28-.03-.48-.11-.85-.47-.97-.95l-1.77-7.25c-.12-.48.04-.97.42-1.28.38-.32.89-.39,1.34-.19l5.61,2.47c.37.16.63.48.73.87.09.39,0,.79-.24,1.11l-3.84,4.78c-.25.31-.61.48-.99.48h0ZM216.84,69.84c-.09,0-.15.04-.18.07-.04.03-.13.13-.09.28l1.77,7.25c.04.15.16.2.21.21s.18.02.28-.1l3.84-4.78c.07-.09.07-.19.05-.24s-.05-.14-.16-.19l-5.61-2.47s-.08-.03-.12-.03h0Z"/>
    </g>
    <g>
      <path class="st14" d="M271.58,252.35c.68.77.69,1.6,0,2.37-.69-.77-.68-1.6,0-2.37h0Z"/>
      <path class="st14" d="M271.58,257.68c.68.77.69,1.6,0,2.37-.69-.77-.68-1.6,0-2.37h0Z"/>
      <path class="st14" d="M275.43,256.2c-.77.68-1.6.69-2.37,0,.77-.69,1.6-.68,2.37,0h0Z"/>
      <path class="st14" d="M270.1,256.2c-.77.68-1.6.69-2.37,0,.77-.69,1.6-.68,2.37,0h0Z"/>
    </g>
    <g>
      <path class="st14" d="M163.74,13.35c.68,1.01.69,2.07,0,3.08-.69-1.01-.68-2.07,0-3.08h0Z"/>
      <path class="st14" d="M163.74,20.29c.68,1.01.69,2.07,0,3.08-.69-1.01-.68-2.07,0-3.08h0Z"/>
      <path class="st14" d="M168.75,18.36c-1.01.68-2.07.69-3.08,0,1.01-.69,2.07-.68,3.08,0h0Z"/>
      <path class="st14" d="M161.81,18.36c-1.01.68-2.07.69-3.08,0,1.01-.69,2.07-.68,3.08,0h0Z"/>
    </g>
    <g class="st13">
      <path class="st19" d="M73.74,151.35c.68,1.01.69,2.07,0,3.08-.69-1.01-.68-2.07,0-3.08h0Z"/>
      <path class="st19" d="M73.74,158.29c.68,1.01.69,2.07,0,3.08-.69-1.01-.68-2.07,0-3.08h0Z"/>
      <path class="st19" d="M78.75,156.36c-1.01.68-2.07.69-3.08,0,1.01-.69,2.07-.68,3.08,0h0Z"/>
      <path class="st19" d="M71.81,156.36c-1.01.68-2.07.69-3.08,0,1.01-.69,2.07-.68,3.08,0h0Z"/>
    </g>
  </g>
  <g id="Layer_3">
    <g>
      <rect class="st8" x="69.73" y="183.53" width="178.72" height="116.23" rx="9.29" ry="9.29"/>
      <path class="st11" d="M71.45,180.25l24.29-22.42h128.9l22.08,22.42s-39.04,57.46-40.54,58.46c-1.49,1-102.6,0-102.6,0l-32.13-58.46Z"/>
      <path class="st9" d="M71.45,180.25l60.07,58.7-58.12,58.23s-3.66-1.85-3.66-7.45v-102.5s-.28-5.67,1.72-6.97h0Z"/>
      <path class="st9" d="M246.72,180.25l-60.33,58.91,58.39,58.02s3.66-1.85,3.66-7.45v-102.5s.28-5.67-1.72-6.97h0Z"/>
      <path class="st2" d="M90.66,199.26v-80.13c0-5.8,4.71-10.51,10.51-10.51h92.89c2.83,0,5.54,1.14,7.51,3.16l22.68,23.19c1.92,1.96,3,4.6,3,7.35v56.94l-50.81,49.74s-18.47,16.6-37.36-2.62l-48.42-47.13h0Z"/>
      <g class="st18">
        <path class="st1" d="M196.99,105.17v29.49c0,4.13,3.35,7.49,7.49,7.49h25.9l-33.38-36.98h0Z"/>
      </g>
      <circle class="st3" cx="159.08" cy="248.67" r="25.63"/>
      <path class="st10" d="M156.06,254.68l12.26-17.17s1.1-2.08,3.43-1.1c0,0,1.72,1.1,0,3.92-1.72,2.82-12.88,18.64-12.88,18.64,0,0-2.33,2.82-4.91,0l-7.73-7.11s-1.35-2.45,0-3.19c0,0,1.47-1.35,3.56.37l6.25,5.64h.02Z"/>
      <g>
        <g>
          <rect class="st3" x="104.98" y="161.32" width="19.9" height="2.51" rx="1.01" ry="1.01"/>
          <rect class="st3" x="113.67" y="152.62" width="2.51" height="19.9" rx="1.01" ry="1.01"/>
          <rect class="st3" x="104.98" y="161.31" width="19.9" height="2.51" rx="1.01" ry="1.01" transform="translate(-81.29 128.89) rotate(-45)"/>
          <rect class="st3" x="113.68" y="152.62" width="2.51" height="19.9" rx="1.01" ry="1.01" transform="translate(-81.3 128.88) rotate(-45)"/>
        </g>
        <g>
          <rect class="st3" x="134.23" y="161.32" width="19.9" height="2.51" rx="1.01" ry="1.01"/>
          <rect class="st3" x="142.93" y="152.62" width="2.51" height="19.9" rx="1.01" ry="1.01"/>
          <rect class="st3" x="134.24" y="161.31" width="19.9" height="2.51" rx="1.01" ry="1.01" transform="translate(-72.72 149.57) rotate(-45)"/>
          <rect class="st3" x="142.94" y="152.62" width="2.51" height="19.9" rx="1.01" ry="1.01" transform="translate(-72.72 149.58) rotate(-45)"/>
        </g>
        <g>
          <rect class="st3" x="163.49" y="161.32" width="19.9" height="2.51" rx="1.01" ry="1.01"/>
          <rect class="st3" x="172.18" y="152.62" width="2.51" height="19.9" rx="1.01" ry="1.01"/>
          <rect class="st3" x="163.49" y="161.32" width="19.9" height="2.51" rx="1.01" ry="1.01" transform="translate(-64.16 170.26) rotate(-45)"/>
          <rect class="st3" x="172.19" y="152.62" width="2.51" height="19.9" rx="1.01" ry="1.01" transform="translate(-64.15 170.26) rotate(-45)"/>
        </g>
        <g>
          <rect class="st3" x="192.74" y="161.32" width="19.9" height="2.51" rx="1.01" ry="1.01"/>
          <rect class="st3" x="201.44" y="152.62" width="2.51" height="19.9" rx="1.01" ry="1.01"/>
          <rect class="st3" x="192.75" y="161.31" width="19.9" height="2.51" rx="1.01" ry="1.01" transform="translate(-55.58 190.94) rotate(-45)"/>
          <rect class="st3" x="201.45" y="152.63" width="2.51" height="19.9" rx="1.01" ry="1.01" transform="translate(-55.59 190.95) rotate(-45)"/>
        </g>
      </g>
      <rect class="st3" x="107.47" y="186.39" width="94.77" height="4.3" rx="2.15" ry="2.15"/>
      <rect class="st3" x="107.47" y="201.58" width="53.12" height="4.3" rx="2.15" ry="2.15"/>
    </g>
    <g>
      <path class="st9" d="M247.33,52.56l-31.61-48.49c-.12-.19.03-.44.26-.41l70.94,8.45c.22.03.32.3.16.46l-39.34,40.05c-.12.12-.32.1-.42-.04v-.02Z"/>
      <g>
        <path class="st11" d="M240.17,17l24.06,18.94s.05.04.06.07l9.21,14.94c.15.24.52.12.5-.16l-1.5-23.32c0-.11-.08-.2-.18-.24l-31.9-10.7c-.29-.1-.49.28-.25.47h0Z"/>
        <path class="st15" d="M273.74,52.58c-.6,0-1.17-.31-1.5-.84l-9.1-14.76-23.89-18.8c-.68-.53-.87-1.47-.46-2.23.41-.76,1.3-1.11,2.12-.84l31.9,10.7c.68.23,1.15.84,1.2,1.55l1.5,23.33c.05.81-.45,1.55-1.23,1.8-.18.06-.36.08-.54.08h0ZM246.68,20.21l18.71,14.72.21.32,6.6,10.71-1.13-17.57-24.38-8.18h0Z"/>
      </g>
      <polygon class="st9" points="229.94 39.62 217.06 19.69 231.57 38.46 229.94 39.62 229.94 39.62"/>
      <path class="st5" d="M247.56,54.18h-.17c-.54-.05-1.02-.34-1.32-.79l-31.61-48.49c-.37-.58-.38-1.32-.02-1.9s1.04-.9,1.71-.82l70.93,8.45c.68.08,1.25.54,1.47,1.19s.05,1.35-.44,1.83l-14.17,12.89c-.43.43-1.12.59-1.75.38l-30.86-9.32,22.06,18.17c.35.26.61.73.65,1.23s-.14,1-.49,1.37l-14.72,15.29c-.34.35-.79.54-1.27.54v-.02ZM246.67,51.55h0ZM218.42,5.45l29.32,44.99,12.73-13.22-25.77-21.23c-.64-.49-.85-1.42-.45-2.19.4-.77,1.29-1.13,2.12-.86l36.08,10.89,11.62-10.57-65.64-7.82h-.01ZM261.46,38.04s.05.05.08.07l-.08-.07ZM261.39,36.27h0ZM271.97,24.27s-.06.05-.08.07l.08-.07ZM273.04,24.02l.06.02s-.04-.01-.06-.02ZM235.47,15.81s.03.01.05.01h-.05ZM236.56,13.65l.07.06s-.05-.04-.07-.06ZM215.81,5.14h0Z"/>
    </g>
    <path class="st19" d="M240.08,162.98l-1.22-.88.03-.04c1.2-1.67,2.39-3.3,3.54-4.85l.03-.04,1.21.89-.03.04c-1.21,1.63-2.4,3.26-3.53,4.84l-.03.04h0ZM323.9,152.62l-.19-1.49h.05c1.89-.25,3.74-.79,5.49-1.6l.08-.02.63,1.35-.05.02c-1.89.88-3.9,1.46-5.96,1.73h-.05ZM314.79,151.73h-.05c-1.97-.66-3.83-1.6-5.54-2.79l-.04-.03.86-1.22.04.02c1.59,1.11,3.32,1.98,5.15,2.58l.05.02-.47,1.42h0ZM249.07,151.02l-1.18-.93.03-.04c1.27-1.6,2.55-3.17,3.8-4.67l.04-.04,1.15.96-.04.04c-1.26,1.51-2.53,3.08-3.77,4.64l-.03.04h0ZM337.33,145.47l-1.08-1.03.03-.03c1.33-1.41,2.5-2.97,3.47-4.66l.02-.05,1.3.75-.02.05c-1.03,1.78-2.27,3.44-3.68,4.94l-.04.03ZM302.94,142.19l-.02-.04c-.51-.87-.97-1.81-1.36-2.77-.4-.96-.74-1.95-1.02-2.92v-.05l1.43-.42v.05c.27.92.6,1.85.97,2.78.37.89.8,1.76,1.27,2.58l.03.04-1.3.75h0ZM258.73,139.62l-1.1-1.01.03-.04c1.39-1.52,2.78-3,4.14-4.38l.03-.04,1.07,1.05-.03.04c-1.37,1.4-2.75,2.86-4.1,4.34l-.04.04ZM344.07,131.83l-1.48-.21v-.05c.15-.97.22-1.95.22-2.89s-.08-1.94-.22-2.87v-.05l1.48-.22v.05c.16,1,.24,2.04.24,3.09s-.08,2.07-.23,3.1v.05h0ZM269.29,129.03l-.06-.02-.97-1.07.04-.04c1.49-1.36,3.02-2.69,4.55-3.96l.04-.03.95,1.15-.03.04c-1.5,1.24-3.01,2.56-4.5,3.91l-.02.02h0ZM300.85,127.43l-1.45-.05v-.05c.06-1.95.29-3.94.7-6.07v-.05l1.49.29v.05c-.41,2.01-.64,3.97-.69,5.83v.05h-.05ZM280.84,119.66l-.87-1.22.04-.03c.58-.41,1.16-.82,1.73-1.21,1.08-.74,2.2-1.46,3.32-2.14l.05-.02.77,1.28-.04.03c-1.12.67-2.21,1.37-3.25,2.08-.65.45-1.19.83-1.71,1.2l-.04.03ZM339.44,117.89l-.03-.04c-.28-.4-.57-.78-.87-1.15-.94-1.15-1.95-2.22-3.03-3.16l-.03-.04.99-1.1h.1l-.03.04c1.13,1,2.19,2.12,3.16,3.31.32.38.62.79.94,1.23l.03.05-1.23.86ZM303.99,113.06l-1.41-.51.02-.04c.73-2.05,1.54-4.09,2.16-5.63l.02-.05,1.39.56-.02.05c-.9,2.25-1.56,3.97-2.14,5.57l-.02.05ZM293.69,112.26l-.61-1.37.04-.03c1.87-.82,3.77-1.57,5.64-2.23h.05l.49,1.41h-.05c-1.84.65-3.69,1.39-5.52,2.2l-.04.02h0ZM328.15,109.01l-.05-.02c-1.76-.7-3.65-1.23-5.62-1.57h-.05l.35-1.48h0c2.06.37,4.03.93,5.87,1.66l.05.02-.55,1.39h0ZM307.78,107.75l-.28-1.47h.05c2.05-.4,4.09-.66,6.05-.79h.05l.09,1.5h-.05c-1.91.12-3.88.38-5.86.75h-.05ZM309.49,99.12l-1.39-.54v-.04c.81-2.09,1.46-3.93,1.99-5.62v-.05l1.44.45v.05c-.56,1.75-1.22,3.62-2.02,5.7,0,0-.02.05-.02.05ZM313.51,84.51l-1.49-.18v-.04c.17-1.39.25-2.76.25-4.09v-.51c0-.4-.02-.81-.05-1.26v-.05l1.5-.09v.05c.03.46.04.9.05,1.33v.53c0,1.38-.08,2.82-.26,4.26v.05ZM310.45,69.92l-.02-.05c-.64-1.77-1.46-3.57-2.45-5.33l-.02-.05,1.31-.72.03.04c1.02,1.83,1.87,3.7,2.54,5.55l.02.05-1.41.51ZM302.99,57.3h-.06c-1.23-1.48-2.59-2.94-4.04-4.34l-.03-.04,1.04-1.07.04.03c1.48,1.44,2.87,2.93,4.14,4.44l.03.04-1.12.94h0ZM292.15,47.21l-.04-.03c-1.56-1.17-3.2-2.32-4.88-3.4l-.04-.03.81-1.25.04.02c1.71,1.1,3.37,2.26,4.93,3.44l.06-.08.02.14-.9,1.19h0Z"/>
    <g>
      <ellipse class="st17" cx="56.07" cy="59.39" rx="48.95" ry="47.56"/>
      <g class="st6">
        <path class="st14" d="M99.68,34.82c12.83,14.09,15.07,36.7,4.95,53.16-7.04,11.44-18.13,19.15-30.85,23.05-12.27,3.68-26.14,1.9-37.01-4.33-5.24-2.89-9.89-6.65-13.79-11.13,10.62,2.61,21.23,4.83,31.71,3.52,18.35-2.4,35.54-15.02,41.64-32.76,3.34-9.87,3.77-20.59,3.34-31.5h.01Z"/>
      </g>
    </g>
    <g>
      <path class="st10" d="M31.87,40.17s15.03-3.51,23.28-12.33c0,0,10.28,9.85,22.93,12.4v21.07s.42,18.25-22.79,29.96c0,0-21.46-8.2-23.42-29.34v-21.76Z"/>
      <path class="st17" d="M35.79,43.46s12.48-2.92,19.32-10.23c0,0,8.53,8.18,19.03,10.29v17.49s.35,15.15-18.92,24.87c0,0-17.82-6.8-19.44-24.35v-18.07h.01Z"/>
      <path class="st10" d="M48.53,56.89h14.05c.47,0,.85.37.85.84v10.02c0,.38-.27.72-.65.81-1.87.45-7.61,1.55-14.54-.01-.39-.09-.67-.43-.66-.82l.1-10c0-.46.38-.83.85-.83h0Z"/>
      <path class="st10" d="M52.29,55.8l-4-.06c.03-2.19.94-4.29,2.49-5.75,1.38-1.31,3.17-1.99,5.05-1.91,4,.16,6.9,3.33,6.9,7.53h-4c0-1.57-.8-3.44-3.06-3.53-1.01-.05-1.72.42-2.13.82-.76.72-1.23,1.81-1.24,2.91h0Z"/>
      <path class="st9" d="M57.43,61.79c0-1.02-.88-1.84-1.93-1.77-.91.06-1.64.8-1.67,1.7-.03.79.47,1.48,1.18,1.73v2.81c0,.36.29.64.65.64h0c.41,0,.74-.32.74-.73v-2.79c.61-.28,1.03-.9,1.03-1.6h0Z"/>
      <g class="st7">
        <g class="st12">
          <path class="st10" d="M74.59,34.34s-13.4,47.74-50.24,41.55,48.48,31.11,48.48,31.11l23.96-73.45-22.2.8h0Z"/>
        </g>
      </g>
    </g>
  </g>
</svg>